<svg xmlns="http://www.w3.org/2000/svg" version="1.1" xmlns:xlink="http://www.w3.org/1999/xlink" xmlns:svgjs="http://svgjs.dev/svgjs" width="100%" height="100%" viewBox="0 0 1000 600"><rect width="1000" height="600" x="0" y="0" fill="#d2302c"/><g><rect width="333.3333333333333" height="333.3333333333333" rx="13.333333333333334" ry="13.333333333333334" y="185.3596609557718" fill="#f7f7f9" transform="matrix(0.7662251352523299,0,0,0.7662251352523299,0,30.268579257540182)" x="163.13743591308594"/><path d="M295.9499313500739 277.0263293783861L295.9499313500739 409.9808735521706L381.84008203783924 409.9808735521706L381.84008203783924 427.026327933425L277.76811334340255 427.026327933425L277.76811334340255 277.0263293783861L295.9499313500739 277.0263293783861Z " fill="#d2302c" transform="matrix(0.7662251352523299,0,0,0.7662251352523299,0,30.268579257540182)"/><path d="M678.7468799971565 277.0263293568195L695.7555858730158 277.0263293568195L695.7555858730158 424.7875182454544L673.5851886344642 424.7875182454544L611.800364913564 325.8447356184266L596.1287236677997 298.077323649245L595.9110619838308 298.077323649245L596.8128032459879 320.4653825717654L596.8128032459879 424.7875182454544L579.8040973701286 424.7875182454544L579.8040973701286 277.0263293568195L601.9434000823987 277.0263293568195L663.51056211933 375.53378861590943L679.4309595753447 403.954185636998L679.6486212593135 403.954185636998L678.7468799971565 381.3484650305086L678.7468799971565 277.0263293568195ZM787.5466274553495 427.0263241377065L787.5466274553495 427.0263241377065Q771.6573245256164 427.0263241377065 759.2195140131049 420.0922447769814Q746.8127980268749 413.15816541625634 739.8787186661497 400.03627532555686Q732.9135447791435 386.9454797611387 732.9135447791435 368.8173709391533L732.9135447791435 368.8173709391533Q732.9135447791435 350.689262117168 739.8787186661497 337.59846655274987Q746.8127980268749 324.4765764620504 758.9085687502921 317.54249710132524Q770.9732449474283 310.6084177406002 786.4272245092235 310.6084177406002L786.4272245092235 310.6084177406002Q802.0988657549877 310.6084177406002 813.1996116374042 317.3248354173563Q824.2692629935394 324.04125309411245 830.0839394081385 335.5773223444668Q835.8986158227375 347.113391594821 835.8986158227375 361.4168736842091L835.8986158227375 361.4168736842091Q835.8986158227375 365.2415004168063 835.6809541387685 368.3820475712155Q835.4632924547997 371.49150019934325 835.0279690868616 373.9790623018456L835.0279690868616 373.9790623018456L744.5739921346229 373.9790623018456L744.5739921346229 358.058664845831L827.1921484639796 358.058664845831L817.988168684721 359.8621473701452Q817.988168684721 343.755182756443 809.1573232208381 335.01762087140366Q800.3264777569551 326.28005898636445 785.9919011412857 326.28005898636445L785.9919011412857 326.28005898636445Q775.0155333639945 326.28005898636445 767.0553346359872 331.3173722439316Q759.1262304342612 336.3546855014987 754.7419022286009 345.86961054356993Q750.388668549222 355.38453558564106 750.388668549222 368.8173709391533L750.388668549222 368.8173709391533Q750.388668549222 382.03254460869664 754.866280333726 391.64075322961173Q759.34389211823 401.28005637680803 767.5217525302063 406.31736963437504Q775.6996129421826 411.35468289194216 787.1113040874117 411.35468289194216L787.1113040874117 411.35468289194216Q799.4247364947979 411.35468289194216 807.1361790125549 406.6594094234691Q814.8787160565934 401.9641359549961 819.5739895250664 393.87955912186374L819.5739895250664 393.87955912186374L833.6598099304855 402.1817976389651Q829.4309543562316 409.7999565778782 822.8078202583193 415.39697130850834Q816.2157806866882 420.99398603913846 807.3538406965239 424.0101550884225Q798.5229952326409 427.0263241377065 787.5466274553495 427.0263241377065ZM982.1050783973086 403.954185636998L1010.3078137344281 312.8472236328522L1030.2394050807275 312.8472236328522L991.2779636502856 424.7875182454544L973.3675165122694 424.7875182454544L941.8065723367716 335.6706059233105L912.018016159307 424.7875182454544L894.1075690212907 424.7875182454544L855.1772221171301 312.8472236328522L875.0777189371482 312.8472236328522L903.3115488005491 403.954185636998L933.7530900299206 312.8472236328522L951.6635371679371 312.8472236328522L982.1050783973086 403.954185636998ZM1097.403581848289 427.0263241377065L1097.403581848289 427.0263241377065Q1081.0478610243363 427.0263241377065 1067.3040804080115 420.0922447769814Q1053.529205265405 413.15816541625634 1046.1287080104607 400.37831511465095L1046.1287080104607 400.37831511465095L1061.3650258882872 389.4019473373596Q1066.2779610407292 399.7253300627441 1075.7928860828001 405.5400064773431Q1085.3078111248715 411.35468289194216 1098.740646478384 411.35468289194216L1098.740646478384 411.35468289194216Q1110.6187555178321 411.35468289194216 1117.3351731945882 406.752693002313Q1124.0515908713446 402.1817976389651 1124.0515908713446 394.7813003840208L1124.0515908713446 394.7813003840208Q1124.0515908713446 390.0860269155478 1121.0354218220605 386.1681166041067Q1117.988158246495 382.25020629266555 1109.499352571706 380.4467237683515L1109.499352571706 380.4467237683515L1082.6336818646814 374.84970903772137Q1066.2779610407292 371.49150019934325 1059.2195035748791 363.6556795764611Q1052.19214063531 355.819858953579 1052.19214063531 344.1905061243808L1052.19214063531 344.1905061243808Q1052.19214063531 335.01762087140366 1057.447115576846 327.39946193249045Q1062.7020905183822 319.78130299357724 1072.4346772444223 315.2104076302294Q1082.1672639704625 310.6084177406002 1095.3824376400057 310.6084177406002L1095.3824376400057 310.6084177406002Q1111.9558201479272 310.6084177406002 1123.3675112931564 317.1071737333873Q1134.7792024383853 323.6059297261745 1140.3762171690155 335.4529442393416L1140.3762171690155 335.4529442393416L1125.3886555014392 345.3099090705068Q1121.5951232951234 335.4529442393416 1113.075223094053 330.88204887599375Q1104.555322892983 326.28005898636445 1095.3824376400057 326.28005898636445L1095.3824376400057 326.28005898636445Q1087.3289553331547 326.28005898636445 1081.6075624973996 328.51886487861657Q1075.9172641879254 330.7576707708686 1072.9010951386417 334.6755810823097Q1069.8538315630763 338.5934913937507 1069.8538315630763 343.50642654619276L1069.8538315630763 343.50642654619276Q1069.8538315630763 348.450456224916 1073.2120404014545 352.58602822032606Q1076.5702492398323 356.7216002157361 1085.7742290190909 358.52508274005015L1085.7742290190909 358.52508274005015L1113.7593026722411 364.3397591546493Q1129.4309439180056 367.4803063090584 1135.6809437005427 374.63204735375234Q1141.9620380093606 381.8148829247277 1141.9620380093606 392.1071711238309L1141.9620380093606 392.1071711238309Q1141.9620380093606 402.61712100690295 1136.3650232787309 410.57731973491025Q1130.7680085481006 418.5064239366362 1120.6933820329664 422.7663740371713Q1110.6187555178321 427.0263241377065 1097.403581848289 427.0263241377065Z " fill="#f7f7f9" transform="matrix(0.7662251352523299,0,0,0.7662251352523299,0,30.268579257540182)"/></g></svg>